<svg xmlns="http://www.w3.org/2000/svg" viewBox="15 25 170 170">
  <defs>
    <linearGradient id="bodyGrad" x1="0.35" y1="0" x2="0.65" y2="1">
      <stop offset="0%" stop-color="#7EC8F5"/>
      <stop offset="45%" stop-color="#4DA8E8"/>
      <stop offset="100%" stop-color="#2E8BC7"/>
    </linearGradient>
    <radialGradient id="bodyShine" cx="0.42" cy="0.28" r="0.45">
      <stop offset="0%" stop-color="#fff" stop-opacity="0.35"/>
      <stop offset="100%" stop-color="#fff" stop-opacity="0"/>
    </radialGradient>
    <linearGradient id="antennaStem" x1="0" y1="0" x2="1" y2="1">
      <stop offset="0%" stop-color="#6BB8EE"/>
      <stop offset="100%" stop-color="#3D96D4"/>
    </linearGradient>
    <radialGradient id="antennaBulb" cx="0.35" cy="0.3" r="0.7">
      <stop offset="0%" stop-color="#C8EEFF" stop-opacity="0.95"/>
      <stop offset="55%" stop-color="#7EC8F5" stop-opacity="0.75"/>
      <stop offset="100%" stop-color="#4DA8E8" stop-opacity="0.5"/>
    </radialGradient>
    <radialGradient id="eyeGrad" cx="0.38" cy="0.35" r="0.65">
      <stop offset="0%" stop-color="#FFE566"/>
      <stop offset="35%" stop-color="#E8B030"/>
      <stop offset="70%" stop-color="#C47A18"/>
      <stop offset="100%" stop-color="#8B4E10"/>
    </radialGradient>
    <radialGradient id="eyeRing" cx="0.5" cy="0.5" r="0.5">
      <stop offset="72%" stop-color="#000" stop-opacity="0"/>
      <stop offset="78%" stop-color="#5A3A08" stop-opacity="0.25"/>
      <stop offset="100%" stop-color="#3D2606" stop-opacity="0.4"/>
    </radialGradient>
  </defs>

  <path
    d="M 102 78 C 108 55, 118 32, 132 22 C 138 18, 145 18, 150 24"
    fill="none"
    stroke="url(#antennaStem)"
    stroke-width="7"
    stroke-linecap="round"
  />
  <circle cx="152" cy="22" r="14" fill="url(#antennaBulb)" stroke="#6BB8EE" stroke-width="1.5" stroke-opacity="0.6"/>
  <ellipse cx="147" cy="17" rx="4" ry="3" fill="#fff" opacity="0.55"/>

  <g fill="url(#bodyGrad)">
    <ellipse cx="52" cy="158" rx="14" ry="11" transform="rotate(-18 52 158)"/>
    <circle cx="42" cy="168" r="5.5"/>
    <circle cx="48" cy="172" r="5"/>
    <circle cx="54" cy="168" r="5"/>
  </g>

  <g fill="url(#bodyGrad)">
    <ellipse cx="148" cy="158" rx="14" ry="11" transform="rotate(18 148 158)"/>
    <circle cx="158" cy="168" r="5.5"/>
    <circle cx="152" cy="172" r="5"/>
    <circle cx="146" cy="168" r="5"/>
  </g>

  <path
    d="M 100 72
       C 72 72, 52 98, 48 132
       C 44 168, 52 208, 68 232
       C 80 248, 92 252, 100 254
       C 108 252, 120 248, 132 232
       C 148 208, 156 168, 152 132
       C 148 98, 128 72, 100 72 Z"
    fill="url(#bodyGrad)"
  />
  <path
    d="M 100 72
       C 72 72, 52 98, 48 132
       C 44 168, 52 208, 68 232
       C 80 248, 92 252, 100 254
       C 108 252, 120 248, 132 232
       C 148 208, 156 168, 152 132
       C 148 98, 128 72, 100 72 Z"
    fill="url(#bodyShine)"
  />

  <g transform="translate(68 118)">
    <circle r="28" fill="url(#eyeGrad)"/>
    <circle r="28" fill="url(#eyeRing)"/>
    <circle r="12" cy="2" fill="#1a1208"/>
    <circle r="5" cx="-5" cy="-6" fill="#fff" opacity="0.9"/>
    <circle r="2.5" cx="6" cy="4" fill="#fff" opacity="0.45"/>
    <path d="M -22 -18 Q -14 -28, -4 -24" fill="none" stroke="#1a2a3a" stroke-width="2.2" stroke-linecap="round"/>
    <path d="M -8 -26 Q 2 -30, 10 -22" fill="none" stroke="#1a2a3a" stroke-width="2" stroke-linecap="round"/>
  </g>

  <g transform="translate(132 118)">
    <circle r="28" fill="url(#eyeGrad)"/>
    <circle r="28" fill="url(#eyeRing)"/>
    <circle r="12" cy="2" fill="#1a1208"/>
    <circle r="5" cx="-5" cy="-6" fill="#fff" opacity="0.9"/>
    <circle r="2.5" cx="6" cy="4" fill="#fff" opacity="0.45"/>
    <path d="M -22 -18 Q -14 -28, -4 -24" fill="none" stroke="#1a2a3a" stroke-width="2.2" stroke-linecap="round"/>
    <path d="M -8 -26 Q 2 -30, 10 -22" fill="none" stroke="#1a2a3a" stroke-width="2" stroke-linecap="round"/>
  </g>

  <ellipse cx="100" cy="152" rx="7" ry="6" fill="#5BB5E8"/>
  <ellipse cx="97" cy="150" rx="2.5" ry="2" fill="#fff" opacity="0.35"/>

  <path
    d="M 86 168 Q 100 178, 114 168"
    fill="none"
    stroke="#2A5F8A"
    stroke-width="2.5"
    stroke-linecap="round"
  />
</svg>
